<?xml version="1.0" encoding="UTF-8" standalone="no"?>
<!DOCTYPE svg PUBLIC "-//W3C//DTD SVG 1.1//EN" "http://www.w3.org/Graphics/SVG/1.1/DTD/svg11.dtd">
<svg width="100%" height="100%" viewBox="0 0 6016 6015" version="1.1" xmlns="http://www.w3.org/2000/svg" xmlns:xlink="http://www.w3.org/1999/xlink" xml:space="preserve" xmlns:serif="http://www.serif.com/" style="fill-rule:evenodd;clip-rule:evenodd;stroke-linejoin:round;stroke-miterlimit:2;">
    <g transform="matrix(1.78966,0,0,1.78966,2.74251,1.13687e-13)">
        <g id="Sky-lamoore-tutorial-youtube-channel-UCJ3Irre7iMNHzsNLYcyNGGw" transform="matrix(0.558623,0,0,0.558623,-23.0213,0)">
            <path d="M6056,3648C6056,3648 4746.5,3656.33 4155,3459C3563.5,3261.67 3081.17,2735.33 2507,2464C1932.83,2192.67 1121.17,2017.17 710,1831C459.017,1717.36 40,1347 40,1347L40,0L6056,0L6056,3648Z" style="fill:url(#_Linear1);"/>
        </g>
        <g id="top-cloud" serif:id="top cloud" transform="matrix(0.558623,0,0,0.558623,46.248,-406.678)">
            <path d="M-84,728L1916.56,728C1916.56,728 2078.46,741.821 2275,809C2489.36,882.268 2955.78,869.429 2959,1030C2962.22,1190.57 4023.4,1005.01 3937,1152C3850.6,1298.99 4697.84,1048.58 4657,1213C4616.16,1377.42 5214.72,1254.67 5221,1391C5227.28,1527.33 5669.44,1341.59 5780,1447C5927.89,1588.01 5932,2006 5932,2006L5932,6744L-84,6744L-84,728Z" style="fill:url(#_Radial2);"/>
        </g>
        <g id="top-sky" serif:id="top sky" transform="matrix(0.479457,0,0,0.484446,341.39,44.7932)">
            <path d="M290.109,461.962C1125.09,369.466 2071.34,709.812 2275,809C2478.66,908.188 2955.78,869.429 2959,1030C2962.22,1190.57 4023.4,1005.01 3937,1152C3850.6,1298.99 4697.84,1048.58 4657,1213C4616.16,1377.42 5214.72,1254.67 5221,1391C5227.28,1527.33 5795.11,1294.99 5780,1447C5764.89,1599.01 6069.25,1446.1 6095,1608C6120.75,1769.9 6295.89,2010.86 6295.89,2010.86L6295.89,6844.7L-713.444,6844.7L-713.444,2010.86C-713.444,2010.86 -521.043,551.819 290.109,461.962Z" style="fill:url(#_Radial3);"/>
        </g>
        <g id="sky2" transform="matrix(0.455204,0,0,0.432824,494.086,328.128)">
            <path d="M290.109,461.962C1125.09,369.466 2071.34,709.812 2275,809C2478.66,908.188 2955.78,869.429 2959,1030C2962.22,1190.57 4023.4,1005.01 3937,1152C3870.08,1265.86 4363.32,1141.28 4570.11,1155.74C4630.29,1159.95 4666.21,1175.94 4657,1213C4616.16,1377.42 5214.72,1254.67 5221,1391C5227.28,1527.33 5795.11,1294.99 5780,1447C5764.89,1599.01 6069.25,1446.1 6095,1608C6120.75,1769.9 6295.89,2010.86 6295.89,2010.86L6295.89,6844.7L-713.444,6844.7L-713.444,2010.86C-713.444,2010.86 -521.043,551.819 290.109,461.962Z" style="fill:url(#_Linear4);"/>
        </g>
        <g id="counter-sky" transform="matrix(-0.558623,0,0,0.658481,3704.91,-320.697)">
            <path d="M617.419,487.025C617.419,487.025 2071.34,709.812 2275,809C2478.66,908.188 2955.78,869.429 2959,1030C2962.22,1190.57 4023.4,1005.01 3937,1152C3850.6,1298.99 4697.84,1048.58 4657,1213C4616.16,1377.42 5214.72,1254.67 5221,1391C5227.28,1527.33 5795.11,1294.99 5780,1447C5764.89,1599.01 6069.25,1446.1 6095,1608C6120.75,1769.9 6634.95,1984 6634.95,1984L6634.95,5590.71L617.422,5590.71L617.419,487.025Z" style="fill:url(#_Radial5);"/>
        </g>
        <g id="Mountain" transform="matrix(0.558623,0,0,0.558623,-0.676374,0)">
            <path d="M6016,2676.93C6016,2676.93 5479.96,2239.86 5259,2229C5259,2229 5057.57,1937.63 4700,1893C4700,1893 4256.47,1386.62 3813,1654C3813,1654 3731.88,1539.5 3616,1594C3616,1594 3250.22,1630.4 3193,1834C3193,1834 2781.34,2050.91 2811,2189C2840.66,2327.09 2702.01,2792.06 3054.38,3032.99C3425.88,3286.99 4492.9,3570.33 5040,3713C5462.18,3823.09 6016,3889 6016,3889L6016,2676.93Z" style="fill:url(#_Linear6);"/>
        </g>
        <g id="Sun" transform="matrix(0.558623,0,0,0.558623,-0.676374,0)">
            <path d="M6016,2995.26L6016,6016L2941,6016L2941,2214C2941,2214 3831.9,2395.7 4071,2457C4310.1,2518.3 4880.89,2576.12 5133,2644C5385.11,2711.88 5901.37,2928.8 6016,2995.26Z" style="fill:url(#_Linear7);"/>
        </g>
        <g id="Bottom" transform="matrix(0.558623,0,0,0.558623,-0.676374,0)">
            <g id="hill" transform="matrix(1,0,0,1,-61,-40)">
                <path d="M6077,3388C6077,3388 5617.91,3424.13 5433,3357C5248.09,3289.87 5177.11,3152.94 5042,3073C4906.89,2993.06 4822.38,3085.06 4659,3009C4495.62,2932.95 4479.02,2867.37 4287,2783C4094.98,2698.63 3918.91,2697.98 3752,2606C3585.09,2514.02 3600.74,2466.69 3388,2321C3175.26,2175.31 2969.55,2217.28 2720,2070C2470.45,1922.72 2367.81,1768.16 2141,1623C1914.19,1477.84 1320.33,1249.17 997,1157C709.558,1075.06 59.468,1103 59.468,1103L61,6056L6077,6056L6077,3388Z" style="fill:url(#_Linear8);"/>
            </g>
            <g id="lava" transform="matrix(1,0,0,1,418,311.783)">
                <path d="M5598,4930.93C5598,4930.93 5519.15,4509.6 4182.71,4172C3797.55,4074.7 3154.92,3995.66 2793,3724.43C2472.3,3484.08 2182.08,3207.45 1749.62,3027.32C1325.85,2850.82 494.5,2874.86 114,2696.22C-475.504,2419.44 -418,3697.1 -418,3697.1L-418,5704.22L5598,5704.22L5598,4930.93Z" style="fill:url(#_Radial9);"/>
            </g>
        </g>
    </g>
    <defs>
        <linearGradient id="_Linear1" x1="0" y1="0" x2="1" y2="0" gradientUnits="userSpaceOnUse" gradientTransform="matrix(6016,0,0,3648.05,40,1824.03)"><stop offset="0" style="stop-color:rgb(2,7,23);stop-opacity:1"/><stop offset="0.54" style="stop-color:rgb(12,13,93);stop-opacity:1"/><stop offset="1" style="stop-color:rgb(16,16,121);stop-opacity:1"/></linearGradient>
        <radialGradient id="_Radial2" cx="0" cy="0" r="1" gradientUnits="userSpaceOnUse" gradientTransform="matrix(-437.112,2081.53,-2081.53,-437.112,2086.02,1497.2)"><stop offset="0" style="stop-color:white;stop-opacity:0.09"/><stop offset="0.56" style="stop-color:white;stop-opacity:0.01"/><stop offset="1" style="stop-color:white;stop-opacity:0"/></radialGradient>
        <radialGradient id="_Radial3" cx="0" cy="0" r="1" gradientUnits="userSpaceOnUse" gradientTransform="matrix(-621.165,1769.33,-1768.56,-618.227,4327.51,1390.83)"><stop offset="0" style="stop-color:white;stop-opacity:0.06"/><stop offset="0.56" style="stop-color:white;stop-opacity:0.03"/><stop offset="1" style="stop-color:white;stop-opacity:0"/></radialGradient>
        <linearGradient id="_Linear4" x1="0" y1="0" x2="1" y2="0" gradientUnits="userSpaceOnUse" gradientTransform="matrix(7009.33,0,0,6398.51,-713.444,3645.45)"><stop offset="0" style="stop-color:rgb(2,7,23);stop-opacity:1"/><stop offset="0.54" style="stop-color:rgb(12,13,93);stop-opacity:1"/><stop offset="1" style="stop-color:rgb(16,16,121);stop-opacity:1"/></linearGradient>
        <radialGradient id="_Radial5" cx="0" cy="0" r="1" gradientUnits="userSpaceOnUse" gradientTransform="matrix(-350.089,-3220.68,-3796.4,296.999,709.442,2365.27)"><stop offset="0" style="stop-color:white;stop-opacity:0"/><stop offset="0.05" style="stop-color:white;stop-opacity:0"/><stop offset="0.07" style="stop-color:white;stop-opacity:0"/><stop offset="0.08" style="stop-color:white;stop-opacity:0"/><stop offset="0.28" style="stop-color:white;stop-opacity:0.02"/><stop offset="0.36" style="stop-color:white;stop-opacity:0.06"/><stop offset="0.42" style="stop-color:white;stop-opacity:0.1"/><stop offset="0.44" style="stop-color:white;stop-opacity:0.08"/><stop offset="0.45" style="stop-color:white;stop-opacity:0"/><stop offset="0.77" style="stop-color:white;stop-opacity:0.01"/><stop offset="0.92" style="stop-color:white;stop-opacity:0.01"/><stop offset="0.97" style="stop-color:white;stop-opacity:0.01"/><stop offset="1" style="stop-color:white;stop-opacity:0"/></radialGradient>
        <linearGradient id="_Linear6" x1="0" y1="0" x2="1" y2="0" gradientUnits="userSpaceOnUse" gradientTransform="matrix(366.499,-719.183,719.183,366.499,4045.5,2398.61)"><stop offset="0" style="stop-color:rgb(104,34,89);stop-opacity:1"/><stop offset="0.64" style="stop-color:rgb(163,53,138);stop-opacity:1"/><stop offset="1" style="stop-color:rgb(205,102,183);stop-opacity:1"/></linearGradient>
        <linearGradient id="_Linear7" x1="0" y1="0" x2="1" y2="0" gradientUnits="userSpaceOnUse" gradientTransform="matrix(-2836,-546,546,-2836,6082,3032)"><stop offset="0" style="stop-color:rgb(255,175,89);stop-opacity:1"/><stop offset="0.61" style="stop-color:rgb(255,205,56);stop-opacity:1"/><stop offset="0.79" style="stop-color:rgb(255,211,55);stop-opacity:0.72"/><stop offset="1" style="stop-color:rgb(255,226,54);stop-opacity:0"/></linearGradient>
        <linearGradient id="_Linear8" x1="0" y1="0" x2="1" y2="0" gradientUnits="userSpaceOnUse" gradientTransform="matrix(-1489.98,3759,-3759,-1489.98,2956.98,2124)"><stop offset="0" style="stop-color:rgb(0,116,228);stop-opacity:1"/><stop offset="0.5" style="stop-color:rgb(159,63,125);stop-opacity:1"/><stop offset="1" style="stop-color:rgb(212,45,91);stop-opacity:1"/></linearGradient>
        <radialGradient id="_Radial9" cx="0" cy="0" r="1" gradientUnits="userSpaceOnUse" gradientTransform="matrix(-1796,4690,-4690,-1796,2975,2489.22)"><stop offset="0" style="stop-color:rgb(253,17,74);stop-opacity:1"/><stop offset="0.28" style="stop-color:rgb(253,17,74);stop-opacity:1"/><stop offset="0.55" style="stop-color:rgb(243,0,48);stop-opacity:0.1"/><stop offset="0.64" style="stop-color:rgb(145,39,105);stop-opacity:0.06"/><stop offset="0.74" style="stop-color:rgb(46,78,162);stop-opacity:0.02"/><stop offset="1" style="stop-color:rgb(0,96,188);stop-opacity:0"/></radialGradient>
    </defs>
</svg>
