<?xml version="1.0" encoding="UTF-8" standalone="no"?>
<!DOCTYPE svg PUBLIC "-//W3C//DTD SVG 1.1//EN" "http://www.w3.org/Graphics/SVG/1.1/DTD/svg11.dtd">
<svg width="100%" height="100%" viewBox="0 0 3360 2160" version="1.1" xmlns="http://www.w3.org/2000/svg" xmlns:xlink="http://www.w3.org/1999/xlink" xml:space="preserve" xmlns:serif="http://www.serif.com/" style="fill-rule:evenodd;clip-rule:evenodd;stroke-linejoin:round;stroke-miterlimit:2;">
    <path d="M2243,0C2243,0 2184.51,58.959 2161,123C2137.49,187.041 2093.87,261.104 2034,294C1974.13,326.896 2036.19,404.429 1958,446C1858.98,498.651 1851.83,536.167 1863,545C1960.85,622.406 1740.03,654.472 1789,702C1828.19,740.043 1710.64,785.046 1756,805C1862.18,851.712 1439.62,1173.43 1467,1176C1608.01,1189.21 1387.67,1241.57 1138,1486C1086.88,1536.05 895.627,1653.33 947,1668C1023.97,1689.97 622.79,1849.57 698,1864C816.421,1886.72 610.047,2076.22 353.822,2160C348.165,2161.85 0,2160 0,2160L0,0L2243,0Z"/>
</svg>
